<?xml version="1.0" encoding="UTF-8" standalone="no"?>
<!DOCTYPE svg PUBLIC "-//W3C//DTD SVG 1.1//EN" "http://www.w3.org/Graphics/SVG/1.1/DTD/svg11.dtd">
<svg version="1.1" xmlns="http://www.w3.org/2000/svg" xmlns:xlink="http://www.w3.org/1999/xlink" preserveAspectRatio="xMidYMid meet" viewBox="0 0 50 50" width="50" height="50"><defs><path d="M22.53 5.49L22.14 6.71L21.86 7.97L21.68 9.26L21.62 10.59L21.68 11.92L21.86 13.22L22.14 14.48L22.53 15.69L23.03 16.86L23.62 17.97L24.3 19.02L25.06 20.01L25.9 20.93L26.82 21.77L27.81 22.53L28.86 23.21L29.97 23.8L31.14 24.3L32.35 24.69L33.61 24.97L34.91 25.15L36.24 25.21L37.57 25.15L38.87 24.97L39.93 24.73L39.93 44.79L39.92 45.04L39.9 45.29L39.87 45.54L39.82 45.78L39.77 46.01L39.7 46.24L39.62 46.47L39.52 46.68L39.42 46.9L39.3 47.1L39.18 47.3L39.05 47.5L38.9 47.68L38.75 47.86L38.59 48.03L38.42 48.19L38.24 48.34L38.06 48.49L37.86 48.62L37.66 48.75L37.46 48.86L37.24 48.96L37.02 49.06L36.8 49.14L36.57 49.21L36.33 49.27L36.09 49.31L35.85 49.34L35.6 49.36L35.35 49.37L7.89 49.37L7.64 49.36L7.39 49.34L7.14 49.31L6.9 49.27L6.67 49.21L6.44 49.14L6.22 49.06L6 48.96L5.78 48.86L5.58 48.75L5.38 48.62L5.18 48.49L5 48.34L4.82 48.19L4.65 48.03L4.49 47.86L4.34 47.68L4.19 47.5L4.06 47.3L3.93 47.1L3.82 46.9L3.72 46.68L3.62 46.47L3.54 46.24L3.47 46.01L3.41 45.78L3.37 45.54L3.34 45.29L3.32 45.04L3.31 44.79L3.31 8.17L3.32 7.92L3.34 7.67L3.37 7.43L3.41 7.19L3.47 6.96L3.54 6.73L3.62 6.5L3.72 6.28L3.82 6.07L3.93 5.86L4.06 5.66L4.19 5.47L4.34 5.28L4.49 5.11L4.65 4.94L4.82 4.77L5 4.62L5.18 4.48L5.38 4.34L5.58 4.22L5.78 4.11L6 4L6.22 3.91L6.44 3.83L6.67 3.76L6.9 3.7L7.14 3.65L7.39 3.62L7.64 3.6L7.89 3.6L23.42 3.6L23.03 4.33L22.53 5.49Z" id="gmzanEPAg"></path><path d="M30.77 28.77L12.46 28.77" id="b3Lmn2jvGx"></path><path d="M30.77 37.93L12.46 37.93" id="g82REd0tA"></path><path d="M17.04 19.62L14.75 19.62L12.46 19.62" id="h2ssGIxJkT"></path><path d="M35.2 2.98C31.54 2.98 28.57 5.95 28.57 9.61C28.57 13.27 31.54 16.24 35.2 16.24C38.86 16.24 41.83 13.27 41.83 9.61C41.83 5.95 38.86 2.98 35.2 2.98Z" id="a6K2DI8py"></path><path d="M44.65 19.62L39.88 14.29" id="b4qnG04feP"></path></defs><g><g><g><use xlink:href="#gmzanEPAg" opacity="1" fill="#000000" fill-opacity="0"></use><g><use xlink:href="#gmzanEPAg" opacity="1" fill-opacity="0" stroke="#000000" stroke-width="2" stroke-opacity="1"></use></g></g><g><use xlink:href="#b3Lmn2jvGx" opacity="1" fill="#000000" fill-opacity="0"></use><g><use xlink:href="#b3Lmn2jvGx" opacity="1" fill-opacity="0" stroke="#000000" stroke-width="2" stroke-opacity="1"></use></g></g><g><use xlink:href="#g82REd0tA" opacity="1" fill="#000000" fill-opacity="0"></use><g><use xlink:href="#g82REd0tA" opacity="1" fill-opacity="0" stroke="#000000" stroke-width="2" stroke-opacity="1"></use></g></g><g><use xlink:href="#h2ssGIxJkT" opacity="1" fill="#000000" fill-opacity="0"></use><g><use xlink:href="#h2ssGIxJkT" opacity="1" fill-opacity="0" stroke="#000000" stroke-width="2" stroke-opacity="1"></use></g></g><g><g><use xlink:href="#a6K2DI8py" opacity="1" fill="#000000" fill-opacity="0"></use><g><use xlink:href="#a6K2DI8py" opacity="1" fill-opacity="0" stroke="#0d6efd" stroke-width="2" stroke-opacity="1"></use></g></g><g><use xlink:href="#b4qnG04feP" opacity="1" fill="#000000" fill-opacity="0"></use><g><use xlink:href="#b4qnG04feP" opacity="1" fill-opacity="0" stroke="#0d6efd" stroke-width="2" stroke-opacity="1"></use></g></g></g></g></g></svg>