<?xml version="1.0" encoding="UTF-8" standalone="no"?>
<!DOCTYPE svg PUBLIC "-//W3C//DTD SVG 1.1//EN" "http://www.w3.org/Graphics/SVG/1.1/DTD/svg11.dtd">
<svg version="1.1" xmlns="http://www.w3.org/2000/svg" xmlns:xlink="http://www.w3.org/1999/xlink" preserveAspectRatio="xMidYMid meet" viewBox="0 0 50 50" width="50" height="50"><defs><path d="M27 15C22.2 15 19.53 15 19 15C17.9 15 17 15.9 17 17C17 18.6 17 31.4 17 33C17 34.1 17.9 35 19 35C20.2 35 29.8 35 31 35C32.1 35 33 34.1 33 33C33 32.2 33 28.2 33 21L27 15Z" id="g14kxha0SB"></path><path d="M27 15L27 21L33 21" id="dZAchW4vZ"></path><path d="M29 26L21 26" id="cG0IEajYC"></path><path d="M29 30L21 30" id="acujnyJ2B"></path><path d="M23 22L22 22L21 22" id="b2tcS9M70U"></path><path d="M39.16 18.57C39.16 22.98 35.57 26.57 31.16 26.57C26.74 26.57 23.16 22.98 23.16 18.57C23.16 14.15 26.74 10.57 31.16 10.57C35.57 10.57 39.16 14.15 39.16 18.57Z" id="b1dNGuhOM6"></path><path d="M35.91 21.36L33 18.46L30.1 21.36" id="l8pwBNRHZ"></path><path d="M33 18.46L33 25" id="c5bjDO1pgl"></path><path d="M39.1 23.1C40.87 22.14 41.52 19.93 40.56 18.17C39.92 17 38.7 16.28 37.37 16.27C37.27 16.27 36.54 16.27 36.45 16.27C35.65 13.16 32.47 11.29 29.36 12.1C26.25 12.9 24.38 16.08 25.19 19.19C25.42 20.07 25.85 20.9 26.46 21.58" id="b1MFvmhkaj"></path><path d="M35.91 21.36L33 18.46L30.1 21.36" id="b2MPS8sxX"></path></defs><g><g><g><g><use xlink:href="#g14kxha0SB" opacity="1" fill="#000000" fill-opacity="0"></use><g><use xlink:href="#g14kxha0SB" opacity="1" fill-opacity="0" stroke="#000000" stroke-width="1" stroke-opacity="1"></use></g></g><g><use xlink:href="#dZAchW4vZ" opacity="1" fill="#000000" fill-opacity="0"></use><g><use xlink:href="#dZAchW4vZ" opacity="1" fill-opacity="0" stroke="#000000" stroke-width="1" stroke-opacity="1"></use></g></g><g><use xlink:href="#cG0IEajYC" opacity="1" fill="#000000" fill-opacity="0"></use><g><use xlink:href="#cG0IEajYC" opacity="1" fill-opacity="0" stroke="#000000" stroke-width="1" stroke-opacity="1"></use></g></g><g><use xlink:href="#acujnyJ2B" opacity="1" fill="#000000" fill-opacity="0"></use><g><use xlink:href="#acujnyJ2B" opacity="1" fill-opacity="0" stroke="#000000" stroke-width="1" stroke-opacity="1"></use></g></g><g><use xlink:href="#b2tcS9M70U" opacity="1" fill="#000000" fill-opacity="0"></use><g><use xlink:href="#b2tcS9M70U" opacity="1" fill-opacity="0" stroke="#000000" stroke-width="1" stroke-opacity="1"></use></g></g></g><g><use xlink:href="#b1dNGuhOM6" opacity="1" fill="#ffffff" fill-opacity="1"></use></g><g><g><use xlink:href="#l8pwBNRHZ" opacity="1" fill="#000000" fill-opacity="0"></use><g><use xlink:href="#l8pwBNRHZ" opacity="1" fill-opacity="0" stroke="#0d6efd" stroke-width="1" stroke-opacity="1"></use></g></g><g><use xlink:href="#c5bjDO1pgl" opacity="1" fill="#000000" fill-opacity="0"></use><g><use xlink:href="#c5bjDO1pgl" opacity="1" fill-opacity="0" stroke="#0d6efd" stroke-width="1" stroke-opacity="1"></use></g></g><g><use xlink:href="#b1MFvmhkaj" opacity="1" fill="#000000" fill-opacity="0"></use><g><use xlink:href="#b1MFvmhkaj" opacity="1" fill-opacity="0" stroke="#0d6efd" stroke-width="1" stroke-opacity="1"></use></g></g><g><use xlink:href="#b2MPS8sxX" opacity="1" fill="#000000" fill-opacity="0"></use><g><use xlink:href="#b2MPS8sxX" opacity="1" fill-opacity="0" stroke="#0d6efd" stroke-width="1" stroke-opacity="1"></use></g></g></g></g></g></svg>